<!-- Generated by IcoMoon.io -->
<svg version="1.1" xmlns="http://www.w3.org/2000/svg" width="19" height="32" viewBox="0 0 19 32">
<title>a</title>
<path d="M7.36 12.352q3.872-0.832 6.272 1.856l1.024 1.984v9.056l1.984 1.024v0.704l-0.928 0.704h-2.208l-1.28-1.28-0.8-0.128q-3.904 2.784-8.128 0.704l-0.928-0.928-0.8-1.952 0.448-3.136 2.208-2.112q3.648-1.28 7.424-0.352l0.832-0.576v-1.632l-1.632-1.952q-3.84-0.96-7.776-0.128l-0.352-0.352 0.576-1.024 4.064-0.48zM4.8 20.704l-1.024 1.504 0.352 2.688 1.6 1.056q4.768 0.48 6.848-3.392l-0.096-1.952-0.608-0.608-4.864-0.32-2.208 1.024z"></path>
</svg>
