<!-- Generated by IcoMoon.io -->
<svg version="1.1" xmlns="http://www.w3.org/2000/svg" width="23" height="32" viewBox="0 0 23 32">
<title>h</title>
<path d="M6.272 7.584l0.928 0.8-0.224 5.6 0.576 1.056h0.928q3.424-2.848 7.328-1.28l1.76 1.376 0.672 1.632v9.312l1.984 1.376-0.704 1.056h-4.416l-0.576-0.352v-0.8l1.632-1.28 0.224-7.68-1.024-2.56-1.632-0.928q-4.256-0.128-6.4 3.488l-0.352 6.624 0.352 1.28 1.632 0.448 0.352 1.056q-3.136 1.824-5.92 0l0.096-0.704 0.928-0.352 0.704-0.928v-15.328l-0.704-1.28-2.080-0.48v-0.8l0.48-0.352h3.456z"></path>
</svg>
