<!-- Generated by IcoMoon.io -->
<svg version="1.1" xmlns="http://www.w3.org/2000/svg" width="21" height="32" viewBox="0 0 21 32">
<title>n</title>
<path d="M13.952 13.952l1.856 1.728q1.184 5.056 0.704 10.24l0.448 0.928 1.28 0.8v0.48l-0.928 0.576h-4.192l-0.576-0.576 0.224-0.832 1.632-1.28q0.896-5.024-0.672-9.76l-1.632-1.28-3.136 0.48-3.040 3.264 0.256 7.2 0.8 1.024 0.832 0.256 0.096 0.8-1.056 0.704-4.512-0.576 0.128-0.832 1.28-0.8 0.32-1.504v-8.736l-0.576-1.152-0.8-0.48v-0.672q2.656-1.248 3.936 1.024h1.056l1.376-1.024 1.984-0.48 2.912 0.48z"></path>
</svg>
