<!-- Generated by IcoMoon.io -->
<svg version="1.1" xmlns="http://www.w3.org/2000/svg" width="20" height="32" viewBox="0 0 20 32">
<title>S</title>
<path d="M11.904 7.968l1.152 0.576 2.656-0.352q2.048 2.176 0.48 5.088h-0.928q-1.216-3.904-5.568-3.936l-1.856 0.128-2.336 0.928-1.024 1.728v1.056l2.304 2.656q5.824-0.288 9.632 3.488l0.704 1.856q0.64 4.064-2.656 6.144l-3.040 0.704-5.344-0.352-1.504-0.928-1.952 0.928-0.576-0.352-0.48-2.56v-2.784l0.352-0.32 1.152 0.32q0.832 3.776 5.12 4.32l4.512-0.48 2.208-2.208v-2.304l-1.28-1.632q-3.296-0.128-6.016-1.856-3.648 0.096-5.248-3.488-1.152-4.16 2.56-6.016l2.688-0.48 4.288 0.128z"></path>
</svg>
